<?xml version="1.0" encoding="UTF-8"?>
<svg id="_图层_1" data-name=" 图层 1" xmlns="http://www.w3.org/2000/svg" viewBox="0 0 48 48">
  <defs>
    <style>
      .cls-1 {
        fill: #fff;
      }

      .cls-1, .cls-2, .cls-3 {
        stroke: #000;
        stroke-miterlimit: 10;
      }

      .cls-1, .cls-3 {
        stroke-width: .5px;
      }

      .cls-2 {
        fill: #bec9fe;
      }

      .cls-3 {
        fill: #6481fa;
      }
    </style>
  </defs>
  <g>
    <path class="cls-2" d="M8.99,44.005c-.87,0-1.58-.28-2.15-.85s-.85-1.28-.85-2.15V11.005c0-.87.28-1.58.85-2.15s1.28-.85,2.15-.85h10.1c.23-1.17.81-2.13,1.73-2.88s1.98-1.13,3.18-1.13,2.26.38,3.18,1.13,1.49,1.71,1.73,2.88h10.1c.87,0,1.58.28,2.15.85s.85,1.28.85,2.15v30c0,.87-.28,1.58-.85,2.15s-1.28.85-2.15.85H8.99Z"/>
    <path class="cls-3" d="M9.31,42.555h29.36c1.03,0,1.87-.84,1.87-1.87V11.325c0-1.03-.84-1.87-1.87-1.87h-1.44v3.49c0,.81-.66,1.47-1.47,1.47H12.23c-.81,0-1.47-.66-1.47-1.47v-3.49h-1.44c-1.03,0-1.87.84-1.87,1.87v29.36c0,1.03.84,1.87,1.87,1.87h-.01Z"/>
    <path class="cls-1" d="M23.99,11.005c.57,0,1.04-.19,1.43-.58.38-.38.58-.86.58-1.43s-.19-1.04-.58-1.43c-.38-.38-.86-.58-1.43-.58s-1.04.19-1.43.58-.58.86-.58,1.43.19,1.04.58,1.43.86.58,1.43.58Z"/>
    <polygon class="cls-1" points="17.33 38.425 11.12 32.215 17.33 26.005 18.68 27.355 14.79 31.245 24.95 31.245 24.95 33.175 14.79 33.175 18.68 37.075 17.33 38.425"/>
    <polygon class="cls-1" points="30.65 30.255 29.3 28.895 33.19 25.005 23.02 25.005 23.02 23.075 33.19 23.075 29.3 19.185 30.65 17.835 36.85 24.045 30.65 30.255"/>
  </g>
  <g>
    <path class="cls-2" d="M8.99,44.005c-.87,0-1.58-.28-2.15-.85s-.85-1.28-.85-2.15V11.005c0-.87.28-1.58.85-2.15s1.28-.85,2.15-.85h10.1c.23-1.17.81-2.13,1.73-2.88s1.98-1.13,3.18-1.13,2.26.38,3.18,1.13,1.49,1.71,1.73,2.88h10.1c.87,0,1.58.28,2.15.85s.85,1.28.85,2.15v30c0,.87-.28,1.58-.85,2.15s-1.28.85-2.15.85H8.99Z"/>
    <path class="cls-3" d="M9.31,42.555h29.36c1.03,0,1.87-.84,1.87-1.87V11.325c0-1.03-.84-1.87-1.87-1.87h-1.44v3.49c0,.81-.66,1.47-1.47,1.47H12.23c-.81,0-1.47-.66-1.47-1.47v-3.49h-1.44c-1.03,0-1.87.84-1.87,1.87v29.36c0,1.03.84,1.87,1.87,1.87h-.01Z"/>
    <path class="cls-1" d="M23.99,11.005c.57,0,1.04-.19,1.43-.58.38-.38.58-.86.58-1.43s-.19-1.04-.58-1.43c-.38-.38-.86-.58-1.43-.58s-1.04.19-1.43.58-.58.86-.58,1.43.19,1.04.58,1.43.86.58,1.43.58Z"/>
    <polygon class="cls-1" points="17.33 38.425 11.12 32.215 17.33 26.005 18.68 27.355 14.79 31.245 24.95 31.245 24.95 33.175 14.79 33.175 18.68 37.075 17.33 38.425"/>
    <polygon class="cls-1" points="30.65 30.255 29.3 28.895 33.19 25.005 23.02 25.005 23.02 23.075 33.19 23.075 29.3 19.185 30.65 17.835 36.85 24.045 30.65 30.255"/>
  </g>
</svg>